<svg width="1280" height="1210" viewBox="0 0 1280 1210" fill="none" xmlns="http://www.w3.org/2000/svg">
<path d="M639.5 1.09998C625.5 2.59998 602.2 7.69998 588.7 12.1C510.7 37.9 449.6 93.6 426.1 160.5C412.8 198 408.3 242 409.3 323C410.2 391 411.4 397.3 429.5 424C437.2 435.3 444 448 444 451C444 453.8 449.7 462.4 456.5 470C467 481.7 472.4 494.4 478 520.4C482.3 540.5 486.3 552.7 493.1 566.5C501.6 583.8 504.8 599 503.7 616.5C502.7 631.5 500.1 636.3 490.6 640.9C487.2 642.5 480.2 645.9 475 648.4C462.7 654.2 447.8 665.6 431.5 681.4C407.5 704.7 384.6 717.5 339.5 732.7C306.3 743.9 273.7 752.3 202.5 768C145.1 780.7 113.6 789 98.9 795.4C92.3 798.2 88.8 803.7 81.5 822.4C71.7 847.4 62.4 881.9 54 924.1C47.5 956.2 44.8 967.7 41.6 976.5C36.8 989.6 23.6 1050.9 12 1114.5C2.8 1164.9 0.800003 1178.6 0.300003 1194.7L-0.199997 1210H640H1280.2L1279.6 1206.2C1279.3 1204.2 1276.7 1184.7 1274 1163C1259.7 1051.1 1251 999.4 1241.3 969.5C1239.9 965.1 1235.9 955.4 1232.5 948C1223 927.6 1219.3 915.6 1218.1 901.2C1216.6 882.6 1212.9 870.9 1204.3 857.5C1195.3 843.7 1183.4 833.1 1162.4 820.2C1144.7 809.4 1137.9 806.1 1122 800.7C1114.6 798.2 1082.2 786 1050 773.7C990.4 750.8 963.7 741 947.4 736C942.3 734.4 936 732 933.3 730.7C923.2 725.6 909.9 713.5 896.2 697.1C874.7 671.3 864.3 661.6 852.1 655.8C823.2 642 812.4 604.6 823.5 557.5C826.4 545.4 828.1 540.4 835.2 523.5C842.7 505.8 847.6 491 849.4 480.5C851.2 470.1 856 459.8 865 447C878.8 427.2 882.3 421.6 886.9 412.7C903 381 913.5 336.6 910.2 314C909 305.3 907.3 301.3 903.5 297.7C898.2 292.8 896.2 273.6 895 213.5C893.9 159.4 892.4 143.5 886.8 126C881.8 110.3 871.6 94.6 857 80C835.4 58.3 809.6 45 776.5 38.5C749.8 33.3 731.1 25.8 718 14.9C704.3 3.59998 695.2 0.999982 667 0.499982C656.8 0.299982 644.5 0.599982 639.5 1.09998Z" fill="black" fill-opacity="0.68"/>
</svg>
